<svg xmlns="http://www.w3.org/2000/svg" width="1024" height="1024" fill="none" viewBox="0 0 1024 1024"><rect width="1024" height="1024" fill="#0A0A0A"/><path fill="#fff" d="M102 696.8L108.84 653.6H124.32C133.92 653.6 141.84 651.08 148.08 646.04C154.32 641 158.04 634.04 159.24 625.16L175.44 524H120.72L128.64 475.4H183.36L190.56 430.4C192.48 418.16 197.04 407.48 204.24 398.36C211.44 389 220.56 381.8 231.6 376.76C242.64 371.72 255 369.2 268.68 369.2H318L310.44 416H262.92C258.12 416 254.04 417.56 250.68 420.68C247.32 423.56 245.16 427.4 244.2 432.2L237.36 475.4H307.56L299.64 524H229.44L212.88 626.96C209.28 648.56 199.08 665.6 182.28 678.08C165.72 690.56 144.72 696.8 119.28 696.8H102ZM325.779 632L357.099 434H409.299L403.179 470.72C407.979 458.48 415.779 448.76 426.579 441.56C437.379 434.12 449.619 430.4 463.299 430.4C482.499 430.4 496.779 437.12 506.139 450.56C515.739 464 518.739 481.88 515.139 504.2L494.979 632H440.979L460.419 509.6C462.099 499.28 460.659 491.36 456.099 485.84C451.539 480.08 444.459 477.2 434.859 477.2C425.259 477.2 417.339 480.08 411.099 485.84C404.859 491.36 400.899 499.28 399.219 509.6L379.779 632H325.779ZM685.279 677C648.799 666.68 622.159 649.52 605.359 625.52C588.799 601.28 583.279 571.76 588.799 536.96L599.599 468.2C603.199 445.4 611.119 424.64 623.359 405.92C635.839 387.2 652.039 371.24 671.959 358.04C691.879 344.6 714.799 334.52 740.719 327.8L732.079 381.8C710.959 386.84 693.439 397.04 679.519 412.4C665.839 427.52 657.199 446.12 653.599 468.2L642.799 536.96C639.439 558.56 642.319 577.04 651.439 592.4C660.559 607.52 674.719 617.48 693.919 622.28L685.279 677ZM767.938 677L776.578 622.28C797.698 617.48 815.218 607.52 829.138 592.4C843.058 577.04 851.698 558.56 855.058 536.96L865.858 468.2C869.458 446.12 866.698 427.52 857.578 412.4C848.698 397.04 834.418 386.84 814.738 381.8L823.378 327.8C859.138 337.88 885.538 355.28 902.578 380C919.618 404.48 925.378 433.88 919.858 468.2L909.058 536.96C903.538 571.76 888.538 601.28 864.058 625.52C839.818 649.52 807.778 666.68 767.938 677Z"/></svg>